<?xml version="1.0" encoding="utf-8"?>
<!-- Generator: Adobe Illustrator 18.0.0, SVG Export Plug-In . SVG Version: 6.00 Build 0)  -->
<!DOCTYPE svg PUBLIC "-//W3C//DTD SVG 1.1//EN" "http://www.w3.org/Graphics/SVG/1.1/DTD/svg11.dtd">
<svg version="1.1" id="Storyboarding" xmlns="http://www.w3.org/2000/svg" xmlns:xlink="http://www.w3.org/1999/xlink" x="0px"
	 y="0px" viewBox="0 0 180 180" enable-background="new 0 0 180 180" xml:space="preserve">
<rect y="27" fill="#FFFFFF" width="176" height="122"/>
<g>
	<line fill="#6BC7BA" x1="165.198" y1="135.765" x2="15.571" y2="135.765"/>
	<rect x="15.571" y="134.266" fill="#25282D" width="149.627" height="3"/>
</g>
<g>
	<circle fill="#6BC7BA" cx="35.41" cy="135.765" r="3.891"/>
	<path fill="#25282D" d="M35.41,140.656c-2.696,0-4.891-2.194-4.891-4.891s2.194-4.891,4.891-4.891s4.891,2.194,4.891,4.891
		S38.106,140.656,35.41,140.656z M35.41,132.875c-1.594,0-2.891,1.297-2.891,2.891s1.297,2.891,2.891,2.891s2.891-1.297,2.891-2.891
		S37.004,132.875,35.41,132.875z"/>
</g>
<path fill="#25292E" d="M180,153H0V27h180V153z M4,149h172V31H4V149z"/>
<g>
	<rect x="15.571" y="42.64" fill="#6AC7B9" width="149.627" height="77.716"/>
	<path fill="#25282D" d="M166.698,121.855H14.071V41.14h152.627V121.855z M17.071,118.855h146.627V44.14H17.071V118.855z"/>
</g>
<path fill="#25292E" d="M89.905,98.151v-3c1.983,0,3.991-0.029,5.966-0.087l0.088,2.999C93.955,98.121,91.918,98.151,89.905,98.151z
	 M83.853,98.065c-2.025-0.059-4.061-0.147-6.05-0.264l0.176-2.995c1.96,0.115,3.965,0.203,5.96,0.26L83.853,98.065z M102.009,97.797
	l-0.178-2.995c2.012-0.12,4.013-0.27,5.945-0.447l0.273,2.987C106.085,97.523,104.053,97.676,102.009,97.797z M71.76,97.349
	c-2.031-0.185-4.06-0.405-6.027-0.653l0.375-2.977c1.935,0.244,3.928,0.46,5.925,0.643L71.76,97.349z M114.078,96.687l-0.377-2.977
	c2.003-0.254,3.983-0.544,5.887-0.863l0.496,2.959C118.142,96.131,116.121,96.427,114.078,96.687z M59.727,95.817
	c-2.053-0.342-4.062-0.725-5.975-1.137l0.633-2.933c1.865,0.402,3.829,0.776,5.836,1.111L59.727,95.817z M126.058,94.666
	l-0.635-2.933c2.012-0.435,3.946-0.911,5.75-1.414l0.807,2.89C130.119,93.728,128.126,94.218,126.058,94.666z M47.829,93.228
	c-2.084-0.58-4.049-1.209-5.84-1.869l1.037-2.814c1.715,0.632,3.602,1.235,5.607,1.793L47.829,93.228z M137.819,91.335l-1.041-2.813
	c1.992-0.737,3.782-1.523,5.319-2.334l1.4,2.652C141.846,89.712,139.936,90.552,137.819,91.335z M36.308,88.873
	c-2.166-1.138-3.94-2.358-5.273-3.625l2.066-2.175c1.133,1.077,2.682,2.135,4.604,3.145L36.308,88.873z M148.763,85.196
	l-2.076-2.165c1.438-1.379,2.167-2.759,2.167-4.101l-0.002-0.103l3-0.065l0.002,0.168C151.854,81.121,150.813,83.229,148.763,85.196
	z M28.4,78.985l-0.511-0.006c-0.001-2.221,1.021-4.312,3.035-6.264l2.088,2.154c-1.409,1.366-2.124,2.732-2.124,4.06L28.4,78.985z
	 M146.598,74.745c-1.141-1.073-2.693-2.127-4.616-3.133l1.391-2.658c2.165,1.132,3.941,2.346,5.282,3.607L146.598,74.745z
	 M37.589,71.702l-1.406-2.65c1.654-0.878,3.564-1.72,5.677-2.504l1.043,2.812C40.915,70.098,39.127,70.886,37.589,71.702z
	 M136.653,69.292c-1.713-0.629-3.6-1.231-5.608-1.788l0.801-2.891c2.088,0.579,4.054,1.206,5.843,1.863L136.653,69.292z
	 M48.506,67.558l-0.809-2.889c1.866-0.522,3.858-1.014,5.923-1.46l0.635,2.932C52.249,66.575,50.314,67.052,48.506,67.558z
	 M125.291,66.098c-1.859-0.4-3.822-0.773-5.835-1.108l0.492-2.959c2.059,0.342,4.068,0.724,5.974,1.134L125.291,66.098z
	 M60.088,65.023l-0.496-2.959c1.942-0.326,3.962-0.624,6.005-0.883l0.379,2.976C63.973,64.412,61.991,64.704,60.088,65.023z
	 M113.567,64.132c-1.93-0.243-3.923-0.458-5.925-0.64l0.271-2.987c2.036,0.185,4.064,0.404,6.028,0.651L113.567,64.132z
	 M71.897,63.51l-0.273-2.987c1.975-0.182,4.008-0.335,6.041-0.457l0.18,2.995C75.842,63.181,73.842,63.332,71.897,63.51z
	 M101.697,63.05c-1.966-0.115-3.972-0.202-5.961-0.258l0.086-2.999c2.019,0.057,4.055,0.146,6.051,0.262L101.697,63.05z
	 M83.804,62.797l-0.088-2.999c1.998-0.059,4.035-0.089,6.053-0.09l0.002,3C87.781,62.709,85.773,62.739,83.804,62.797z"/>
<g>
	<polygon fill="#FFFFFF" points="101.523,109.749 92.071,96.617 98.717,81.865 114.816,80.245 124.269,93.377 117.622,108.129 	"/>
	<path fill="#25292E" d="M100.812,111.328L90.348,96.79l7.358-16.331l17.822-1.793l10.464,14.538l-7.358,16.331L100.812,111.328z
		 M93.795,96.443l8.44,11.727l14.375-1.446l5.935-13.174l-8.44-11.726l-14.375,1.447L93.795,96.443z"/>
</g>
<g>
	<polygon fill="none" points="114.816,80.245 113.039,80.424 94.07,99.393 95.826,101.834 115.904,81.756 	"/>
	<polygon fill="none" points="116.496,82.578 96.418,102.656 98.175,105.097 118.253,85.019 	"/>
	<polygon fill="none" points="106.8,81.051 92.757,95.095 92.071,96.617 93.478,98.571 111.467,80.582 	"/>
	<polygon fill="none" points="121.193,89.104 101.115,109.182 101.523,109.749 105.106,109.388 122.95,91.544 	"/>
	<polygon fill="none" points="98.717,81.865 98.517,82.309 98.989,81.838 	"/>
	<polygon fill="none" points="100.561,81.679 97.358,84.882 93.916,92.521 105.228,81.21 	"/>
	<polygon fill="none" points="118.844,85.841 98.767,105.919 100.523,108.359 120.601,88.282 	"/>
	<polygon fill="none" points="111.346,108.76 122.251,97.855 124.269,93.377 123.542,92.367 106.678,109.23 	"/>
	<polygon fill="none" points="117.585,108.132 117.65,108.068 121.091,100.429 112.918,108.602 	"/>
	<polygon fill="#25292E" points="123.542,92.367 122.95,91.544 105.106,109.388 106.678,109.23 	"/>
	<polygon fill="#25292E" points="111.467,80.582 93.478,98.571 94.07,99.393 113.039,80.424 	"/>
	<polygon fill="#25292E" points="118.253,85.019 98.175,105.097 98.767,105.919 118.844,85.841 	"/>
	<polygon fill="#25292E" points="98.989,81.838 98.517,82.309 97.358,84.882 100.561,81.679 	"/>
	<polygon fill="#25292E" points="115.904,81.756 95.826,101.834 96.418,102.656 116.496,82.578 	"/>
	<polygon fill="#25292E" points="105.228,81.21 93.916,92.521 92.757,95.095 106.8,81.051 	"/>
	<polygon fill="#25292E" points="120.601,88.282 100.523,108.359 101.115,109.182 121.193,89.104 	"/>
	<polygon fill="#25292E" points="117.622,108.129 117.65,108.068 117.585,108.132 	"/>
	<polygon fill="#25292E" points="112.918,108.602 121.091,100.429 122.251,97.855 111.346,108.76 	"/>
</g>
</svg>
