<?xml version="1.0" encoding="utf-8"?>
<!-- Generator: Adobe Illustrator 18.0.0, SVG Export Plug-In . SVG Version: 6.00 Build 0)  -->
<!DOCTYPE svg PUBLIC "-//W3C//DTD SVG 1.1//EN" "http://www.w3.org/Graphics/SVG/1.1/DTD/svg11.dtd">
<svg version="1.1" id="Storyboarding" xmlns="http://www.w3.org/2000/svg" xmlns:xlink="http://www.w3.org/1999/xlink" x="0px"
	 y="0px" viewBox="0 0 139.274 180" enable-background="new 0 0 139.274 180" xml:space="preserve">
<g id="XMLID_1_">
	<g>
		<polygon fill="#FFFFFF" points="124.402,4 124.402,79 100.402,79 100.402,93.21 81.472,79 55.682,79 38.402,93.02 38.402,79 
			15.402,79 15.402,4 		"/>
	</g>
</g>
<rect x="13.402" y="2" fill="#6CC7BB" width="11" height="79"/>
<rect x="115.402" y="2" fill="#6CC7BB" width="11" height="79"/>
<path fill="#25292E" d="M79.244,179h-4c0-9.229-4.691-16.057-13.945-20.295c-7.13-3.266-14.319-3.701-14.391-3.705l-5.578-0.312
	l4.509-3.299c0.31-0.233,7.847-6.093,7.847-22.058c0-14.443-8.812-16.6-14.063-16.6s-14.063,2.156-14.063,16.6
	c0,15.965,7.537,21.824,7.858,22.065l4.355,3.28L32.338,155c-0.072,0.004-7.359,0.458-14.488,3.749C8.659,162.991,4,169.805,4,179H0
	c0-20.254,19.443-25.938,28.072-27.463c-2.785-3.603-6.514-10.595-6.514-22.206c0-19.115,13.826-20.6,18.063-20.6
	s18.063,1.485,18.063,20.6c0,11.611-3.729,18.604-6.514,22.206C59.801,153.062,79.244,158.746,79.244,179z"/>
<path fill="#25292E" d="M138.756,179h-4c0-9.229-4.691-16.057-13.945-20.295c-7.13-3.266-14.319-3.701-14.391-3.705l-5.578-0.312
	l4.509-3.299c0.31-0.233,7.847-6.093,7.847-22.058c0-14.443-8.812-16.6-14.063-16.6s-14.062,2.156-14.062,16.6
	c0,16.13,7.768,22,7.846,22.058l4.496,3.29L91.85,155c-0.072,0.004-7.359,0.458-14.488,3.749
	c-9.189,4.242-13.849,11.056-13.849,20.251h-4c0-20.254,19.442-25.938,28.071-27.463c-2.784-3.603-6.513-10.595-6.513-22.206
	c0-19.115,13.825-20.6,18.062-20.6s18.063,1.485,18.063,20.6c0,11.611-3.729,18.604-6.514,22.206
	C119.312,153.062,138.756,158.746,138.756,179z"/>
<rect x="114.402" y="2" fill="#25292E" width="2" height="79"/>
<rect x="24.402" y="2" fill="#25292E" width="2" height="79"/>
<g>
	<path fill="#6CC7BB" d="M59.821,54.899c3.429-11.593-6.063-15.348-6.063-24.361s6.989-15.615,15.62-15.615
		s15.62,6.602,15.62,15.615s-9.468,12.768-6.039,24.361"/>
	<path fill="#25292E" d="M77.521,55.324c-2.18-7.369,0.494-11.976,2.853-16.041c1.606-2.769,3.124-5.384,3.124-8.746
		c0-8.047-6.07-14.115-14.12-14.115s-14.12,6.068-14.12,14.115c0,3.362,1.522,5.978,3.134,8.747
		c2.366,4.064,5.048,8.671,2.868,16.04l-2.877-0.851c1.812-6.127-0.323-9.796-2.584-13.68c-1.741-2.991-3.541-6.084-3.541-10.255
		c0-9.597,7.521-17.115,17.12-17.115s17.12,7.518,17.12,17.115c0,4.169-1.794,7.261-3.529,10.251
		c-2.254,3.885-4.384,7.555-2.57,13.685L77.521,55.324z"/>
</g>
<g>
	<path fill="#FFFFFF" d="M75.646,66.655c0,0-2.811-0.245-6.2-0.245c-3.388,0-6.336,0.245-6.336,0.245l-1.369-5.389l-1.452-5.714
		c0,0,3.313-0.653,9.198-0.653c5.885,0,8.98,0.653,8.98,0.653l-1.473,5.799L75.646,66.655z"/>
	<path fill="#25292E" d="M76.786,68.26l-1.27-0.111c-0.027-0.002-2.793-0.239-6.07-0.239c-3.287,0-6.183,0.238-6.212,0.24
		l-1.266,0.105l-3.523-13.869l1.554-0.306c0.142-0.028,3.524-0.681,9.488-0.681c5.974,0,9.156,0.657,9.289,0.685l1.529,0.323
		L76.786,68.26z M62.152,56.795l2.104,8.276c1.192-0.072,3.101-0.162,5.19-0.162c2.061,0,3.897,0.087,5.056,0.159l2.104-8.284
		c-1.43-0.176-3.828-0.386-7.118-0.386C66.142,56.399,63.64,56.617,62.152,56.795z"/>
</g>
<path fill="#25292E" d="M77.407,59.641c-0.034-0.003-3.515-0.364-8.206-0.364s-7.788,0.36-7.819,0.364l-0.117-0.993
	c0.031-0.003,3.187-0.371,7.937-0.371c4.748,0,8.276,0.366,8.312,0.37L77.407,59.641z"/>
<path fill="#25292E" d="M62.37,63.558l-0.135-0.991c0.111-0.015,2.778-0.372,7.211-0.372c4.435,0,6.922,0.357,7.025,0.373
	l-0.145,0.989c-0.025-0.003-2.527-0.362-6.881-0.362C65.089,63.195,62.396,63.554,62.37,63.558z"/>
<rect x="57.052" y="45.941" transform="matrix(0.2475 0.9689 -0.9689 0.2475 94.5117 -28.8018)" fill="#25292E" width="17.491" height="1"/>
<rect x="72.56" y="37.713" transform="matrix(0.9709 0.2393 -0.2393 0.9709 13.237 -16.1349)" fill="#25292E" width="1" height="17.456"/>
<path fill="#25292E" d="M73.152,34.213c-0.014-0.006-1.446-0.612-3.706-0.612c-2.241,0-3.496,0.596-3.509,0.603l-0.441-0.897
	c0.059-0.029,1.455-0.705,3.95-0.705c2.484,0,4.04,0.667,4.105,0.695L73.152,34.213z"/>
<path fill="#25292E" d="M34.402,101.414V83h-23V0h117v83h-24v18.218L80.137,83h-23.04L34.402,101.414z M55.679,79h25.792
	l18.932,14.213V79h24V4h-109v75h23v14.018L55.679,79z"/>
<g>
	<polygon fill="none" points="25.402,36.778 13.402,48.778 13.402,51.588 25.402,39.588 	"/>
	<polygon fill="none" points="25.402,53.674 13.402,65.674 13.402,68.483 25.402,56.483 	"/>
	<polygon fill="none" points="25.402,41.002 13.402,53.002 13.402,55.812 25.402,43.812 	"/>
	<polygon fill="none" points="25.402,7.211 13.402,19.211 13.402,22.021 25.402,10.021 	"/>
	<polygon fill="none" points="25.402,2.988 13.402,14.988 13.402,17.797 25.402,5.797 	"/>
	<polygon fill="none" points="25.402,49.449 13.402,61.449 13.402,64.26 25.402,52.26 	"/>
	<polygon fill="none" points="25.402,45.226 13.402,57.226 13.402,60.035 25.402,48.035 	"/>
	<polygon fill="none" points="25.402,15.66 13.402,27.66 13.402,30.469 25.402,18.469 	"/>
	<polygon fill="none" points="25.402,24.107 13.402,36.107 13.402,38.917 25.402,26.917 	"/>
	<polygon fill="none" points="25.402,32.555 13.402,44.555 13.402,47.364 25.402,35.364 	"/>
	<polygon fill="none" points="25.402,28.331 13.402,40.331 13.402,43.141 25.402,31.141 	"/>
	<polygon fill="none" points="25.402,11.436 13.402,23.436 13.402,26.246 25.402,14.246 	"/>
	<polygon fill="none" points="17.943,2 13.402,6.541 13.402,9.35 20.752,2 	"/>
	<polygon fill="none" points="22.167,2 13.402,10.764 13.402,13.574 24.977,2 	"/>
	<polygon fill="none" points="25.402,80 25.402,79.016 24.418,80 	"/>
	<polygon fill="none" points="13.719,2 13.402,2.316 13.402,5.126 16.529,2 	"/>
	<polygon fill="none" points="25.402,66.344 13.402,78.344 13.402,80 14.557,80 25.402,69.154 	"/>
	<polygon fill="none" points="18.781,80 25.402,73.378 25.402,70.568 15.971,80 	"/>
	<polygon fill="none" points="23.004,80 25.402,77.602 25.402,74.792 20.195,80 	"/>
	<polygon fill="none" points="25.402,57.897 13.402,69.897 13.402,72.707 25.402,60.707 	"/>
	<polygon fill="none" points="25.402,19.883 13.402,31.883 13.402,34.693 25.402,22.693 	"/>
	<polygon fill="none" points="25.402,62.121 13.402,74.121 13.402,76.93 25.402,64.93 	"/>
	<polygon fill="#25292E" points="25.402,2 24.977,2 13.402,13.574 13.402,14.988 25.402,2.988 	"/>
	<polygon fill="#25292E" points="16.529,2 13.402,5.126 13.402,6.541 17.943,2 	"/>
	<polygon fill="#25292E" points="13.402,2 13.402,2.316 13.719,2 	"/>
	<polygon fill="#25292E" points="20.752,2 13.402,9.35 13.402,10.764 22.167,2 	"/>
	<polygon fill="#25292E" points="25.402,10.021 13.402,22.021 13.402,23.436 25.402,11.436 	"/>
	<polygon fill="#25292E" points="25.402,5.797 13.402,17.797 13.402,19.211 25.402,7.211 	"/>
	<polygon fill="#25292E" points="25.402,14.246 13.402,26.246 13.402,27.66 25.402,15.66 	"/>
	<polygon fill="#25292E" points="25.402,18.469 13.402,30.469 13.402,31.883 25.402,19.883 	"/>
	<polygon fill="#25292E" points="25.402,22.693 13.402,34.693 13.402,36.107 25.402,24.107 	"/>
	<polygon fill="#25292E" points="25.402,31.141 13.402,43.141 13.402,44.555 25.402,32.555 	"/>
	<polygon fill="#25292E" points="25.402,26.917 13.402,38.917 13.402,40.331 25.402,28.331 	"/>
	<polygon fill="#25292E" points="25.402,39.588 13.402,51.588 13.402,53.002 25.402,41.002 	"/>
	<polygon fill="#25292E" points="20.195,80 25.402,74.792 25.402,73.378 18.781,80 	"/>
	<polygon fill="#25292E" points="25.402,56.483 13.402,68.483 13.402,69.897 25.402,57.897 	"/>
	<polygon fill="#25292E" points="25.402,35.364 13.402,47.364 13.402,48.778 25.402,36.778 	"/>
	<polygon fill="#25292E" points="25.402,64.93 13.402,76.93 13.402,78.344 25.402,66.344 	"/>
	<polygon fill="#25292E" points="25.402,48.035 13.402,60.035 13.402,61.449 25.402,49.449 	"/>
	<polygon fill="#25292E" points="25.402,43.812 13.402,55.812 13.402,57.226 25.402,45.226 	"/>
	<polygon fill="#25292E" points="25.402,60.707 13.402,72.707 13.402,74.121 25.402,62.121 	"/>
	<polygon fill="#25292E" points="25.402,52.26 13.402,64.26 13.402,65.674 25.402,53.674 	"/>
	<polygon fill="#25292E" points="25.402,70.568 25.402,69.154 14.557,80 15.971,80 	"/>
	<polygon fill="#25292E" points="24.418,80 25.402,79.016 25.402,77.602 23.004,80 	"/>
</g>
<g>
	<polygon fill="none" points="126.402,31.299 115.402,42.299 115.402,45.109 126.402,34.109 	"/>
	<polygon fill="none" points="126.402,18.628 115.402,29.628 115.402,32.437 126.402,21.437 	"/>
	<polygon fill="none" points="126.402,48.194 115.402,59.194 115.402,62.004 126.402,51.004 	"/>
	<polygon fill="none" points="126.402,22.851 115.402,33.851 115.402,36.662 126.402,25.662 	"/>
	<polygon fill="none" points="126.402,35.523 115.402,46.523 115.402,49.333 126.402,38.333 	"/>
	<polygon fill="none" points="126.402,43.97 115.402,54.97 115.402,57.78 126.402,46.78 	"/>
	<polygon fill="none" points="126.402,39.747 115.402,50.747 115.402,53.556 126.402,42.556 	"/>
	<polygon fill="none" points="126.402,27.076 115.402,38.076 115.402,40.885 126.402,29.885 	"/>
	<polygon fill="none" points="121.912,2 115.402,8.509 115.402,11.318 124.721,2 	"/>
	<polygon fill="none" points="117.687,2 115.402,4.285 115.402,7.095 120.498,2 	"/>
	<polygon fill="none" points="115.402,2 115.402,2.871 116.273,2 	"/>
	<polygon fill="none" points="126.402,10.181 115.402,21.181 115.402,23.99 126.402,12.99 	"/>
	<polygon fill="none" points="126.402,14.404 115.402,25.404 115.402,28.214 126.402,17.214 	"/>
	<polygon fill="none" points="126.402,2 126.135,2 115.402,12.732 115.402,15.542 126.402,4.542 	"/>
	<polygon fill="none" points="126.402,5.957 115.402,16.957 115.402,19.767 126.402,8.767 	"/>
	<polygon fill="none" points="126.402,56.642 115.402,67.642 115.402,70.451 126.402,59.451 	"/>
	<polygon fill="none" points="126.402,60.865 115.402,71.865 115.402,74.675 126.402,63.675 	"/>
	<polygon fill="none" points="122.749,80 126.402,76.347 126.402,73.537 119.939,80 	"/>
	<polygon fill="none" points="126.402,80 126.402,77.761 124.163,80 	"/>
	<polygon fill="none" points="126.402,72.123 126.402,69.313 115.716,80 118.525,80 	"/>
	<polygon fill="none" points="126.402,52.418 115.402,63.418 115.402,66.228 126.402,55.228 	"/>
	<polygon fill="none" points="126.402,65.089 115.402,76.089 115.402,78.899 126.402,67.899 	"/>
	<polygon fill="#25292E" points="124.721,2 115.402,11.318 115.402,12.732 126.135,2 	"/>
	<polygon fill="#25292E" points="116.273,2 115.402,2.871 115.402,4.285 117.687,2 	"/>
	<polygon fill="#25292E" points="120.498,2 115.402,7.095 115.402,8.509 121.912,2 	"/>
	<polygon fill="#25292E" points="126.402,8.767 115.402,19.767 115.402,21.181 126.402,10.181 	"/>
	<polygon fill="#25292E" points="126.402,4.542 115.402,15.542 115.402,16.957 126.402,5.957 	"/>
	<polygon fill="#25292E" points="126.402,12.99 115.402,23.99 115.402,25.404 126.402,14.404 	"/>
	<polygon fill="#25292E" points="126.402,17.214 115.402,28.214 115.402,29.628 126.402,18.628 	"/>
	<polygon fill="#25292E" points="126.402,21.437 115.402,32.437 115.402,33.851 126.402,22.851 	"/>
	<polygon fill="#25292E" points="126.402,29.885 115.402,40.885 115.402,42.299 126.402,31.299 	"/>
	<polygon fill="#25292E" points="126.402,25.662 115.402,36.662 115.402,38.076 126.402,27.076 	"/>
	<polygon fill="#25292E" points="126.402,38.333 115.402,49.333 115.402,50.747 126.402,39.747 	"/>
	<polygon fill="#25292E" points="119.939,80 126.402,73.537 126.402,72.123 118.525,80 	"/>
	<polygon fill="#25292E" points="126.402,55.228 115.402,66.228 115.402,67.642 126.402,56.642 	"/>
	<polygon fill="#25292E" points="126.402,34.109 115.402,45.109 115.402,46.523 126.402,35.523 	"/>
	<polygon fill="#25292E" points="126.402,63.675 115.402,74.675 115.402,76.089 126.402,65.089 	"/>
	<polygon fill="#25292E" points="126.402,46.78 115.402,57.78 115.402,59.194 126.402,48.194 	"/>
	<polygon fill="#25292E" points="126.402,42.556 115.402,53.556 115.402,54.97 126.402,43.97 	"/>
	<polygon fill="#25292E" points="126.402,59.451 115.402,70.451 115.402,71.865 126.402,60.865 	"/>
	<polygon fill="#25292E" points="126.402,51.004 115.402,62.004 115.402,63.418 126.402,52.418 	"/>
	<polygon fill="#25292E" points="126.402,67.899 115.402,78.899 115.402,80 115.716,80 126.402,69.313 	"/>
	<polygon fill="#25292E" points="124.163,80 126.402,77.761 126.402,76.347 122.749,80 	"/>
</g>
</svg>
