<?xml version="1.0" encoding="utf-8"?>
<!-- Generator: Adobe Illustrator 18.0.0, SVG Export Plug-In . SVG Version: 6.00 Build 0)  -->
<!DOCTYPE svg PUBLIC "-//W3C//DTD SVG 1.1//EN" "http://www.w3.org/Graphics/SVG/1.1/DTD/svg11.dtd">
<svg version="1.1" id="Storyboarding" xmlns="http://www.w3.org/2000/svg" xmlns:xlink="http://www.w3.org/1999/xlink" x="0px"
	 y="0px" viewBox="0 0 176 180" enable-background="new 0 0 176 180" xml:space="preserve">
<path fill="#FFFFFF" d="M22.304,95H16.58c-0.945-2.509-1.632-5.695-1.632-9.654c0-11.483,7.622-15.556,14.149-15.556
	s14.149,4.074,14.149,15.556c0,3.946-0.683,7.124-1.622,9.629h-5.731L22.304,95z"/>
<path fill="#FFFFFF" d="M21.62,79.009c-0.865,1.492-1.437,3.536-1.437,6.337c0,9.617,4.809,13.182,4.809,13.182S8.22,100,8.22,113
	h41.753c0-13-16.772-14.472-16.772-14.472s4.809-3.542,4.809-13.159c0-2.695-0.53-4.702-1.341-6.178L21.62,79.009z"/>
<rect x="-1.147" y="111.743" fill="#FFFFFF" width="60.381" height="13.127"/>
<rect x="5.95" y="120.87" fill="#FFFFFF" width="46.185" height="58.759"/>
<rect x="23" y="44" fill="#FFFFFF" width="153" height="99"/>
<path fill="#6BC7BA" d="M36.402,71.084L36.402,71.084c11.813,6.271,4.822,23.89,4.822,23.89h-5.32l-2.702,3.283v0.224
	c17.973,1.496,16.933,15.262,16.933,15.262h7.098v9.961h-6.47v7.725h111.301V55.551H36.402V71.084z"/>
<polygon fill="#25282D" points="163.564,132.665 50.764,132.665 50.764,129.665 160.564,129.665 160.564,57.051 37.901,57.051 
	37.901,71.662 34.901,71.662 34.901,54.051 163.564,54.051 "/>
<g>
	<polygon fill="#FFFFFF" points="68.648,73.178 73.394,82.795 84.008,84.337 76.328,91.823 78.141,102.394 68.648,97.403 
		59.155,102.394 60.968,91.823 53.289,84.337 63.902,82.795 	"/>
	<path fill="#25282D" d="M80.133,105.135l-11.484-6.037l-11.485,6.037l2.194-12.788l-9.293-9.057l12.841-1.866l5.743-11.635
		l5.742,11.635l12.841,1.866l-9.292,9.057L80.133,105.135z M56.512,85.385l6.068,5.915l-1.433,8.353l7.501-3.943l7.5,3.943
		l-1.432-8.353l6.067-5.915l-8.386-1.218l-3.75-7.599l-3.751,7.599L56.512,85.385z"/>
</g>
<rect x="91.573" y="76.611" fill="#25282D" width="53.413" height="2"/>
<rect x="91.573" y="84.674" fill="#25282D" width="53.413" height="2"/>
<rect x="91.573" y="92.737" fill="#25282D" width="53.413" height="2"/>
<rect x="91.573" y="100.801" fill="#25282D" width="53.413" height="2"/>
<polygon fill="#25292E" points="176,143 49,143 49,139 172,139 172,48 27,48 27,69 23,69 23,44 176,44 "/>
<path fill="#25282D" d="M52.135,179.629H5.95V120.87h46.185V179.629z M9.95,175.629h38.185V124.87H9.95V175.629z"/>
<path fill="#25282D" d="M59.233,124.87H-1.147v-13.127h60.381V124.87z M2.853,120.87h52.381v-5.127H2.853V120.87z"/>
<g>
	<polygon fill="none" points="25.011,122 8,139.012 8,143.316 29.316,122 	"/>
	<polygon fill="none" points="51,124.607 8,167.606 8,171.912 51,128.912 	"/>
	<polygon fill="none" points="51,178 51,176.078 49.078,178 	"/>
	<polygon fill="none" points="19.292,122 8,133.292 8,137.598 23.597,122 	"/>
	<polygon fill="none" points="47.664,178 51,174.664 51,170.359 43.359,178 	"/>
	<polygon fill="none" points="30.73,122 8,144.73 8,149.035 35.035,122 	"/>
	<polygon fill="none" points="36.449,122 8,150.449 8,154.755 40.755,122 	"/>
	<polygon fill="none" points="51,122 47.888,122 8,161.888 8,166.192 51,123.193 	"/>
	<polygon fill="none" points="36.227,178 51,163.227 51,158.921 31.921,178 	"/>
	<polygon fill="none" points="42.169,122 8,156.169 8,160.474 46.474,122 	"/>
	<polygon fill="none" points="41.945,178 51,168.945 51,164.641 37.641,178 	"/>
	<polygon fill="none" points="24.788,178 51,151.788 51,147.483 20.483,178 	"/>
	<polygon fill="none" points="13.573,122 8,127.573 8,131.878 17.878,122 	"/>
	<polygon fill="none" points="51,140.35 51,136.045 10.834,176.211 10.127,175.504 51,134.631 51,130.326 8,173.326 8,178 
		13.35,178 	"/>
	<polygon fill="none" points="8,122 8,126.159 12.159,122 	"/>
	<polygon fill="none" points="19.069,178 51,146.069 51,141.764 14.764,178 	"/>
	<polygon fill="none" points="30.507,178 51,157.507 51,153.202 26.202,178 	"/>
	<polygon fill="#25292E" points="12.159,122 8,126.159 8,127.573 13.573,122 	"/>
	<polygon fill="#25292E" points="51,128.912 8,171.912 8,173.326 51,130.326 	"/>
	<polygon fill="#25292E" points="35.035,122 8,149.035 8,150.449 36.449,122 	"/>
	<polygon fill="#25292E" points="46.474,122 8,160.474 8,161.888 47.888,122 	"/>
	<polygon fill="#25292E" points="23.597,122 8,137.598 8,139.012 25.011,122 	"/>
	<polygon fill="#25292E" points="17.878,122 8,131.878 8,133.292 19.292,122 	"/>
	<polygon fill="#25292E" points="40.755,122 8,154.755 8,156.169 42.169,122 	"/>
	<polygon fill="#25292E" points="29.316,122 8,143.316 8,144.73 30.73,122 	"/>
	<polygon fill="#25292E" points="51,123.193 8,166.192 8,167.606 51,124.607 	"/>
	<polygon fill="#25292E" points="14.764,178 51,141.764 51,140.35 13.35,178 	"/>
	<polygon fill="#25292E" points="10.834,176.211 51,136.045 51,134.631 10.127,175.504 	"/>
	<polygon fill="#25292E" points="20.483,178 51,147.483 51,146.069 19.069,178 	"/>
	<polygon fill="#25292E" points="26.202,178 51,153.202 51,151.788 24.788,178 	"/>
	<polygon fill="#25292E" points="31.921,178 51,158.921 51,157.507 30.507,178 	"/>
	<polygon fill="#25292E" points="43.359,178 51,170.359 51,168.945 41.945,178 	"/>
	<polygon fill="#25292E" points="37.641,178 51,164.641 51,163.227 36.227,178 	"/>
	<polygon fill="#25292E" points="49.078,178 51,176.078 51,174.664 47.664,178 	"/>
</g>
<g>
	<g id="XMLID_2_">
		<g>
			<path fill="#25292E" d="M51.47,113h-3c0-5-2.52-8.67-7.51-10.95c-3.89-1.79-7.8-2.05-7.84-2.05l-4.17-0.24l0.3-0.02l-0.15-0.11
				l3.22-2.35c0.1-0.08,1.55-1.23,2.73-3.95l0.84,0.14v3h0.92c-0.2,0.34-0.4,0.64-0.59,0.92C42.68,98.6,51.47,103,51.47,113z"/>
			<path fill="#25292E" d="M44.75,85.35c0,3.69-0.58,7.11-1.72,10.15l-0.37,0.97h-5.85c0.49-0.82,0.97-1.82,1.4-3h2.35
				c0.79-2.45,1.19-5.18,1.19-8.12c0-13.38-10.54-14.06-12.65-14.06c-2.12,0-12.65,0.68-12.65,14.06c0,2.95,0.4,5.69,1.19,8.15h2.35
				c0.43,1.18,0.92,2.18,1.41,3h-5.86l-0.36-0.97c-1.15-3.05-1.73-6.47-1.73-10.18c0-8.49,4.84-17.06,15.65-17.06
				S44.75,76.86,44.75,85.35z"/>
			<path fill="#25292E" d="M39.51,85.35c0,3.34-0.55,6.02-1.3,8.12h-2.32l-0.84-0.14c0.79-1.87,1.46-4.48,1.46-7.98
				c0-2.22-0.39-4.05-1.16-5.45l2.63-1.44C39,80.3,39.51,82.62,39.51,85.35z"/>
			<path fill="#25292E" d="M35.89,93.47h2.32c-0.43,1.18-0.91,2.18-1.4,3h-0.92V93.47z"/>
			<polygon fill="#25292E" points="29.25,99.74 28.95,99.76 28.93,99.76 29.1,99.63 			"/>
			<path fill="#25292E" d="M29.1,99.63l-0.17,0.13l-3.85,0.27C24.45,100.06,9.72,101,9.72,113h-3c0-10,8.79-14.4,15.25-15.61
				c-0.19-0.27-0.38-0.56-0.57-0.89h0.9v-3l0.7-0.54c1.22,3.06,2.85,4.29,2.88,4.31L29.1,99.63z"/>
			<path fill="#25292E" d="M23,92.96l-0.7,0.54h-2.31c-0.76-2.09-1.31-4.78-1.31-8.13c0-2.83,0.55-5.22,1.64-7.1l2.6,1.5
				c-0.82,1.41-1.24,3.29-1.24,5.58C21.68,88.63,22.26,91.12,23,92.96z"/>
			<path fill="#25292E" d="M22.3,93.5v3h-0.9c-0.49-0.82-0.98-1.82-1.41-3H22.3z"/>
		</g>
	</g>
</g>
<path fill="#25292E" d="M42.06,80.009H15.894c-0.553,0-1-0.448-1-1s0.447-1,1-1H42.06c0.553,0,1,0.448,1,1
	S42.612,80.009,42.06,80.009z"/>
</svg>
