<?xml version="1.0" encoding="utf-8"?>
<!-- Generator: Adobe Illustrator 18.0.0, SVG Export Plug-In . SVG Version: 6.00 Build 0)  -->
<!DOCTYPE svg PUBLIC "-//W3C//DTD SVG 1.1//EN" "http://www.w3.org/Graphics/SVG/1.1/DTD/svg11.dtd">
<svg version="1.1" id="Storyboarding" xmlns="http://www.w3.org/2000/svg" xmlns:xlink="http://www.w3.org/1999/xlink" x="0px"
	 y="0px" viewBox="0 0 175.914 180" enable-background="new 0 0 175.914 180" xml:space="preserve">
<polygon fill="#FFFFFF" points="2.798,141.201 173.691,141.201 173.691,41.476 74.516,41.476 74.516,45.752 48.95,45.752 
	48.95,35.645 24.085,35.645 24.085,45.752 2.798,45.752 "/>
<g>
	<polygon fill="none" points="134.663,132 172,97.68 172,92.287 128.796,132 	"/>
	<polygon fill="none" points="149.267,132 172,111.103 172,105.711 143.401,132 	"/>
	<polygon fill="none" points="141.965,132 172,104.392 172,98.999 136.098,132 	"/>
	<polygon fill="none" points="127.361,132 172,90.968 172,85.575 121.494,132 	"/>
	<polygon fill="none" points="120.059,132 172,84.255 172,78.863 114.192,132 	"/>
	<polygon fill="none" points="98.152,132 161.25,74 155.384,74 92.286,132 	"/>
	<polygon fill="none" points="90.85,132 153.948,74 148.082,74 84.984,132 	"/>
	<polygon fill="none" points="112.757,132 172,77.543 172,74 169.989,74 106.89,132 	"/>
	<polygon fill="none" points="105.455,132 168.553,74 162.686,74 99.588,132 	"/>
	<polygon fill="none" points="156.569,132 172,117.816 172,112.423 150.702,132 	"/>
	<polygon fill="none" points="3,74 3,78.509 7.906,74 	"/>
	<polygon fill="none" points="23.945,74 3,93.253 3,98.646 29.812,74 	"/>
	<polygon fill="none" points="16.643,74 3,86.541 3,91.933 22.51,74 	"/>
	<polygon fill="none" points="83.548,132 146.646,74 140.779,74 77.681,132 	"/>
	<polygon fill="none" points="9.341,74 3,79.828 3,85.222 15.208,74 	"/>
	<polygon fill="none" points="31.247,74 3,99.965 3,105.358 37.115,74 	"/>
	<polygon fill="none" points="171.173,132 172,131.24 172,125.848 165.307,132 	"/>
	<polygon fill="none" points="163.872,132 172,124.528 172,119.135 158.005,132 	"/>
	<polygon fill="none" points="60.456,74 3,126.814 3,132 3.225,132 66.323,74 	"/>
	<polygon fill="none" points="53.154,74 3,120.102 3,125.495 59.021,74 	"/>
	<polygon fill="none" points="38.55,74 3,106.678 3,112.07 44.416,74 	"/>
	<polygon fill="none" points="45.851,74 3,113.389 3,118.782 51.718,74 	"/>
	<polygon fill="none" points="54.339,132 117.438,74 111.571,74 48.473,132 	"/>
	<polygon fill="none" points="32.433,132 95.531,74 89.664,74 26.567,132 	"/>
	<polygon fill="none" points="25.131,132 88.229,74 82.363,74 19.265,132 	"/>
	<polygon fill="none" points="39.736,132 102.834,74 96.966,74 33.869,132 	"/>
	<polygon fill="none" points="61.642,132 124.74,74 118.873,74 55.775,132 	"/>
	<polygon fill="none" points="68.944,132 132.042,74 126.176,74 63.078,132 	"/>
	<polygon fill="none" points="47.038,132 110.135,74 104.269,74 41.171,132 	"/>
	<polygon fill="none" points="10.527,132 73.625,74 67.758,74 4.66,132 	"/>
	<polygon fill="none" points="76.246,132 139.344,74 133.477,74 70.379,132 	"/>
	<polygon fill="none" points="17.829,132 80.927,74 75.06,74 11.962,132 	"/>
	<polygon fill="#25292E" points="15.208,74 3,85.222 3,86.541 16.643,74 	"/>
	<polygon fill="#25292E" points="11.962,132 75.06,74 73.625,74 10.527,132 	"/>
	<polygon fill="#25292E" points="44.416,74 3,112.07 3,113.389 45.851,74 	"/>
	<polygon fill="#25292E" points="7.906,74 3,78.509 3,79.828 9.341,74 	"/>
	<polygon fill="#25292E" points="59.021,74 3,125.495 3,126.814 60.456,74 	"/>
	<polygon fill="#25292E" points="29.812,74 3,98.646 3,99.965 31.247,74 	"/>
	<polygon fill="#25292E" points="22.51,74 3,91.933 3,93.253 23.945,74 	"/>
	<polygon fill="#25292E" points="51.718,74 3,118.782 3,120.102 53.154,74 	"/>
	<polygon fill="#25292E" points="37.115,74 3,105.358 3,106.678 38.55,74 	"/>
	<polygon fill="#25292E" points="67.758,74 66.323,74 3.225,132 4.66,132 	"/>
	<polygon fill="#25292E" points="26.567,132 89.664,74 88.229,74 25.131,132 	"/>
	<polygon fill="#25292E" points="19.265,132 82.363,74 80.927,74 17.829,132 	"/>
	<polygon fill="#25292E" points="33.869,132 96.966,74 95.531,74 32.433,132 	"/>
	<polygon fill="#25292E" points="41.171,132 104.269,74 102.834,74 39.736,132 	"/>
	<polygon fill="#25292E" points="48.473,132 111.571,74 110.135,74 47.038,132 	"/>
	<polygon fill="#25292E" points="63.078,132 126.176,74 124.74,74 61.642,132 	"/>
	<polygon fill="#25292E" points="55.775,132 118.873,74 117.438,74 54.339,132 	"/>
	<polygon fill="#25292E" points="77.681,132 140.779,74 139.344,74 76.246,132 	"/>
	<polygon fill="#25292E" points="136.098,132 172,98.999 172,97.68 134.663,132 	"/>
	<polygon fill="#25292E" points="106.89,132 169.989,74 168.553,74 105.455,132 	"/>
	<polygon fill="#25292E" points="70.379,132 133.477,74 132.042,74 68.944,132 	"/>
	<polygon fill="#25292E" points="121.494,132 172,85.575 172,84.255 120.059,132 	"/>
	<polygon fill="#25292E" points="92.286,132 155.384,74 153.948,74 90.85,132 	"/>
	<polygon fill="#25292E" points="84.984,132 148.082,74 146.646,74 83.548,132 	"/>
	<polygon fill="#25292E" points="114.192,132 172,78.863 172,77.543 112.757,132 	"/>
	<polygon fill="#25292E" points="99.588,132 162.686,74 161.25,74 98.152,132 	"/>
	<polygon fill="#25292E" points="128.796,132 172,92.287 172,90.968 127.361,132 	"/>
	<polygon fill="#25292E" points="150.702,132 172,112.423 172,111.103 149.267,132 	"/>
	<polygon fill="#25292E" points="143.401,132 172,105.711 172,104.392 141.965,132 	"/>
	<polygon fill="#25292E" points="158.005,132 172,119.135 172,117.816 156.569,132 	"/>
	<polygon fill="#25292E" points="172,132 172,131.24 171.173,132 	"/>
	<polygon fill="#25292E" points="165.307,132 172,125.848 172,124.528 163.872,132 	"/>
</g>
<path fill="#25282D" d="M175.635,143.145H0.854V44.9h71.649v-5.368h103.132V143.145z M4.742,139.257h167.005V43.42H76.391v5.368
	H4.742V139.257z"/>
<path fill="none" stroke="#25282D" stroke-width="4" stroke-miterlimit="10" d="M88.245,32.192"/>
<path fill="none" stroke="#25282D" stroke-width="2" stroke-miterlimit="10" d="M119.298,42.879"/>
<polygon fill="#25282D" points="50.407,46.928 47.491,46.928 47.491,37.387 25.543,37.387 25.543,46.928 22.627,46.928 
	22.627,34.471 50.407,34.471 "/>
<g>
	<line fill="#6BC7BA" x1="2.798" y1="132.397" x2="173.691" y2="132.397"/>
	<rect x="2.798" y="131.425" fill="#25282D" width="170.893" height="1.944"/>
</g>
<g>
	<circle fill="#FFFFFF" cx="88.245" cy="99.144" r="35.11"/>
	<path fill="#25282D" d="M88.245,135.712c-20.163,0-36.568-16.404-36.568-36.567s16.404-36.568,36.568-36.568
		s36.567,16.404,36.567,36.568S108.408,135.712,88.245,135.712z M88.245,65.493c-18.555,0-33.652,15.096-33.652,33.652
		s15.097,33.651,33.652,33.651s33.651-15.096,33.651-33.651S106.8,65.493,88.245,65.493z"/>
</g>
<g>
	<circle fill="#6BC7BA" cx="88.245" cy="98.756" r="26.534"/>
	<path fill="#25282D" d="M88.245,126.748c-15.434,0-27.992-12.557-27.992-27.991s12.558-27.992,27.992-27.992
		s27.991,12.557,27.991,27.992S103.679,126.748,88.245,126.748z M88.245,73.68c-13.827,0-25.076,11.249-25.076,25.076
		c0,13.827,11.25,25.076,25.076,25.076s25.075-11.249,25.075-25.076C113.32,84.929,102.072,73.68,88.245,73.68z"/>
</g>
<g>
	<path fill="#6BC7BA" d="M74.516,94.914c0-5.46,4.426-9.887,9.887-9.887"/>
	<path fill="#25282D" d="M75.974,94.914h-2.916c0-6.256,5.089-11.344,11.344-11.344v2.916
		C79.756,86.486,75.974,90.267,75.974,94.914z"/>
</g>
<rect x="2.798" y="71.44" fill="#25282D" width="61.596" height="3.888"/>
<rect x="112.095" y="71.44" fill="#25282D" width="61.596" height="3.888"/>
<path fill="#25282D" d="M163.442,66.945h-22.018V48.436h22.018V66.945z M144.34,64.029h16.186V51.352H144.34V64.029z"/>
<path fill="#25282D" d="M135.909,64.384h-16.913V48.436h16.913V64.384z M121.912,61.468h11.082V51.352h-11.082V61.468z"/>
<rect x="15.412" y="56.772" fill="#25282D" width="50.262" height="2.916"/>
<path fill="#FFFFFF" d="M24.085,35.645"/>
</svg>
