<?xml version="1.0" encoding="utf-8"?>
<!-- Generator: Adobe Illustrator 18.0.0, SVG Export Plug-In . SVG Version: 6.00 Build 0)  -->
<!DOCTYPE svg PUBLIC "-//W3C//DTD SVG 1.1//EN" "http://www.w3.org/Graphics/SVG/1.1/DTD/svg11.dtd">
<svg version="1.1" id="Storyboarding" xmlns="http://www.w3.org/2000/svg" xmlns:xlink="http://www.w3.org/1999/xlink" x="0px"
	 y="0px" viewBox="0 0 181.282 180" enable-background="new 0 0 181.282 180" xml:space="preserve">
<rect fill="#FFFFFF" width="155" height="180"/>
<rect x="33.064" y="79.119" fill="#25282D" width="99.014" height="3.011"/>
<rect x="17.795" y="91.672" fill="#25282D" width="114.284" height="2.007"/>
<rect x="17.795" y="100.904" fill="#25282D" width="114.284" height="2.007"/>
<rect x="17.795" y="110.137" fill="#25282D" width="114.284" height="2.007"/>
<rect x="17.795" y="119.369" fill="#25282D" width="114.284" height="2.007"/>
<rect x="99.081" y="132.558" fill="#25282D" width="32.997" height="2.007"/>
<rect x="17.795" y="132.558" fill="#25282D" width="74.033" height="2.007"/>
<rect x="99.081" y="141.791" fill="#25282D" width="32.997" height="2.007"/>
<rect x="17.795" y="141.791" fill="#25282D" width="74.033" height="2.007"/>
<rect x="99.081" y="151.023" fill="#25282D" width="32.997" height="2.007"/>
<rect x="17.795" y="151.023" fill="#25282D" width="74.033" height="2.007"/>
<rect x="99.081" y="160.256" fill="#25282D" width="32.997" height="2.007"/>
<rect x="17.795" y="160.256" fill="#25282D" width="74.033" height="2.007"/>
<path fill="#25282D" d="M21.779,85.611c-2.75,0-4.988-2.237-4.988-4.987c0-2.75,2.238-4.987,4.988-4.987s4.987,2.237,4.987,4.987
	C26.765,83.374,24.529,85.611,21.779,85.611z M21.779,77.644c-1.644,0-2.98,1.337-2.98,2.98c0,1.643,1.337,2.98,2.98,2.98
	c1.643,0,2.979-1.337,2.979-2.98C24.758,78.981,23.421,77.644,21.779,77.644z"/>
<path fill="#25282D" d="M50.467,59.143H16.289V24.966h34.178V59.143z M19.3,56.132h28.156V27.977H19.3V56.132z"/>
<path fill="#25282D" d="M92.179,59.143H58.001V24.966h34.178V59.143z M61.012,56.132h28.156V27.977H61.012V56.132z"/>
<path fill="#25282D" d="M133.889,59.143H99.713V24.966h34.177V59.143z M102.723,56.132h28.155V27.977h-28.155V56.132z"/>
<rect x="1.509" y="8.353" fill="#25282D" width="151.978" height="2.007"/>
<g>
	<polygon fill="none" points="48.986,59 50,57.986 50,54.243 45.243,59 	"/>
	<polygon fill="none" points="18,25 18,28.051 21.051,25 	"/>
	<polygon fill="none" points="22.47,25 18,29.47 18,33.212 26.212,25 	"/>
	<polygon fill="none" points="28.341,59 50,37.34 50,33.598 24.599,59 	"/>
	<polygon fill="none" points="43.824,59 50,52.824 50,49.082 40.082,59 	"/>
	<polygon fill="none" points="27.631,25 18,34.632 18,38.374 31.373,25 	"/>
	<polygon fill="none" points="33.502,59 50,42.502 50,38.76 29.76,59 	"/>
	<polygon fill="none" points="38.663,59 50,47.663 50,43.921 34.921,59 	"/>
	<polygon fill="none" points="18,50.115 18,53.857 46.549,25.307 47.259,26.017 18,55.276 18,59 18.018,59 49.13,27.888 
		49.84,28.598 19.438,59 23.179,59 50,32.179 50,25 43.115,25 	"/>
	<polygon fill="none" points="37.954,25 18,44.954 18,48.696 41.696,25 	"/>
	<polygon fill="none" points="32.793,25 18,39.793 18,43.535 36.535,25 	"/>
	<polygon fill="#25292E" points="46.549,25.307 18,53.857 18,55.276 47.259,26.017 	"/>
	<polygon fill="#25292E" points="26.212,25 18,33.212 18,34.632 27.631,25 	"/>
	<polygon fill="#25292E" points="36.535,25 18,43.535 18,44.954 37.954,25 	"/>
	<polygon fill="#25292E" points="31.373,25 18,38.374 18,39.793 32.793,25 	"/>
	<polygon fill="#25292E" points="21.051,25 18,28.051 18,29.47 22.47,25 	"/>
	<polygon fill="#25292E" points="41.696,25 18,48.696 18,50.115 43.115,25 	"/>
	<polygon fill="#25292E" points="24.599,59 50,33.598 50,32.179 23.179,59 	"/>
	<polygon fill="#25292E" points="49.13,27.888 18.018,59 19.438,59 49.84,28.598 	"/>
	<polygon fill="#25292E" points="29.76,59 50,38.76 50,37.34 28.341,59 	"/>
	<polygon fill="#25292E" points="34.921,59 50,43.921 50,42.502 33.502,59 	"/>
	<polygon fill="#25292E" points="40.082,59 50,49.082 50,47.663 38.663,59 	"/>
	<polygon fill="#25292E" points="50,59 50,57.986 48.986,59 	"/>
	<polygon fill="#25292E" points="45.243,59 50,54.243 50,52.824 43.824,59 	"/>
</g>
<g>
	<polygon fill="none" points="69.227,59 90,38.227 90,34.485 65.485,59 	"/>
	<polygon fill="none" points="60,25 60,26.938 61.938,25 	"/>
	<polygon fill="none" points="64.066,59 90,33.066 90,29.324 60.324,59 	"/>
	<polygon fill="none" points="63.357,25 60,28.357 60,32.099 67.099,25 	"/>
	<polygon fill="none" points="89.872,59 90,58.872 90,55.13 86.13,59 	"/>
	<polygon fill="none" points="74.388,59 90,43.388 90,39.646 70.646,59 	"/>
	<polygon fill="none" points="84.71,59 90,53.71 90,49.968 80.969,59 	"/>
	<polygon fill="none" points="79.549,59 90,48.549 90,44.807 75.807,59 	"/>
	<polygon fill="none" points="78.84,25 60,43.84 60,47.582 82.582,25 	"/>
	<polygon fill="none" points="73.679,25 60,38.679 60,42.421 77.421,25 	"/>
	<polygon fill="none" points="60,49.002 60,52.744 87.436,25.307 88.146,26.017 60,54.163 60,57.905 90,27.904 90,25 84.001,25 	"/>
	<polygon fill="none" points="68.518,25 60,33.518 60,37.26 72.26,25 	"/>
	<polygon fill="#25292E" points="87.436,25.307 60,52.744 60,54.163 88.146,26.017 	"/>
	<polygon fill="#25292E" points="67.099,25 60,32.099 60,33.518 68.518,25 	"/>
	<polygon fill="#25292E" points="77.421,25 60,42.421 60,43.84 78.84,25 	"/>
	<polygon fill="#25292E" points="72.26,25 60,37.26 60,38.679 73.679,25 	"/>
	<polygon fill="#25292E" points="61.938,25 60,26.938 60,28.357 63.357,25 	"/>
	<polygon fill="#25292E" points="82.582,25 60,47.582 60,49.002 84.001,25 	"/>
	<polygon fill="#25292E" points="65.485,59 90,34.485 90,33.066 64.066,59 	"/>
	<polygon fill="#25292E" points="60,59 60.324,59 90,29.324 90,27.904 60,57.905 	"/>
	<polygon fill="#25292E" points="70.646,59 90,39.646 90,38.227 69.227,59 	"/>
	<polygon fill="#25292E" points="75.807,59 90,44.807 90,43.388 74.388,59 	"/>
	<polygon fill="#25292E" points="80.969,59 90,49.968 90,48.549 79.549,59 	"/>
	<polygon fill="#25292E" points="90,59 90,58.872 89.872,59 	"/>
	<polygon fill="#25292E" points="86.13,59 90,55.13 90,53.71 84.71,59 	"/>
</g>
<g>
	<polygon fill="none" points="106.271,59 132,33.271 132,29.529 102.529,59 	"/>
	<polygon fill="none" points="111.432,59 132,38.432 132,34.69 107.69,59 	"/>
	<polygon fill="none" points="100.401,25 100,25.401 100,29.143 104.143,25 	"/>
	<polygon fill="none" points="132,59 132,55.335 128.335,59 	"/>
	<polygon fill="none" points="121.755,59 132,48.755 132,45.013 118.013,59 	"/>
	<polygon fill="none" points="105.562,25 100,30.562 100,34.304 109.304,25 	"/>
	<polygon fill="none" points="126.916,59 132,53.916 132,50.174 123.174,59 	"/>
	<polygon fill="none" points="116.594,59 132,43.594 132,39.852 112.851,59 	"/>
	<polygon fill="none" points="100,51.207 100,54.949 129.642,25.307 130.351,26.017 100,56.368 100,59 101.11,59 132,28.11 132,25 
		126.207,25 	"/>
	<polygon fill="none" points="121.046,25 100,46.046 100,49.788 124.788,25 	"/>
	<polygon fill="none" points="115.885,25 100,40.885 100,44.626 119.627,25 	"/>
	<polygon fill="none" points="110.724,25 100,35.723 100,39.465 114.465,25 	"/>
	<polygon fill="#25292E" points="129.642,25.307 100,54.949 100,56.368 130.351,26.017 	"/>
	<polygon fill="#25292E" points="109.304,25 100,34.304 100,35.723 110.724,25 	"/>
	<polygon fill="#25292E" points="119.627,25 100,44.626 100,46.046 121.046,25 	"/>
	<polygon fill="#25292E" points="100,25 100,25.401 100.401,25 	"/>
	<polygon fill="#25292E" points="114.465,25 100,39.465 100,40.885 115.885,25 	"/>
	<polygon fill="#25292E" points="104.143,25 100,29.143 100,30.562 105.562,25 	"/>
	<polygon fill="#25292E" points="124.788,25 100,49.788 100,51.207 126.207,25 	"/>
	<polygon fill="#25292E" points="107.69,59 132,34.69 132,33.271 106.271,59 	"/>
	<polygon fill="#25292E" points="102.529,59 132,29.529 132,28.11 101.11,59 	"/>
	<polygon fill="#25292E" points="112.851,59 132,39.852 132,38.432 111.432,59 	"/>
	<polygon fill="#25292E" points="118.013,59 132,45.013 132,43.594 116.594,59 	"/>
	<polygon fill="#25292E" points="123.174,59 132,50.174 132,48.755 121.755,59 	"/>
	<polygon fill="#25292E" points="128.335,59 132,55.335 132,53.916 126.916,59 	"/>
</g>
<path fill="#25292E" d="M155,180H0V0h155V180z M4,176h147V4H4V176z"/>
<g>
	<g>
		<polyline fill="#FFFFFF" points="89.592,154.557 85.93,158.219 78.912,151.201 82.573,147.539 		"/>
		<polygon fill="#25292E" points="85.93,159.638 77.493,151.201 81.864,146.829 83.283,148.249 80.331,151.201 85.93,156.8 
			88.882,153.848 90.301,155.267 		"/>
	</g>
	<g>
		
			<rect x="123.052" y="45.738" transform="matrix(0.7071 0.7071 -0.7071 0.7071 113.952 -60.2493)" fill="#6CC7BB" width="13.302" height="123.378"/>
		<path fill="#25292E" d="M90.786,157.17l-10.825-10.825l88.66-88.661l10.825,10.825L90.786,157.17z M82.799,146.345l7.987,7.987
			l85.822-85.822l-7.987-7.987L82.799,146.345z"/>
	</g>
	
		<rect x="137.897" y="91.579" transform="matrix(0.7071 0.7071 -0.7071 0.7071 107.7984 -75.0937)" fill="#25292E" width="13.303" height="2.007"/>
	
		<rect x="142.673" y="86.803" transform="matrix(0.7071 0.7071 -0.7071 0.7071 105.8201 -79.8696)" fill="#25292E" width="13.303" height="2.007"/>
	
		<rect x="147.449" y="82.027" transform="matrix(0.7071 0.7071 -0.7071 0.7071 103.8419 -84.6454)" fill="#25292E" width="13.303" height="2.007"/>
	
		<rect x="152.225" y="77.251" transform="matrix(0.7071 0.7071 -0.7071 0.7071 101.8636 -89.4212)" fill="#25292E" width="13.303" height="2.007"/>
	
		<rect x="157.001" y="72.475" transform="matrix(0.7071 0.7071 -0.7071 0.7071 99.8853 -94.197)" fill="#25292E" width="13.303" height="2.007"/>
	
		<rect x="168.553" y="62.127" transform="matrix(0.7071 0.7071 -0.7071 0.7071 95.6033 -104.5465)" fill="#25292E" width="10.894" height="2.007"/>
	
		<rect x="173.315" y="69.783" transform="matrix(0.707 0.7072 -0.7072 0.707 103.5053 -103.4107)" fill="#25292E" width="6.489" height="6.868"/>
	
		<rect x="168.323" y="69.46" transform="matrix(0.7071 0.7071 -0.7071 0.7071 108.6037 -95.3545)" fill="#25292E" width="2.163" height="27.918"/>
</g>
</svg>
