<?xml version="1.0" encoding="utf-8"?>
<!-- Generator: Adobe Illustrator 18.0.0, SVG Export Plug-In . SVG Version: 6.00 Build 0)  -->
<!DOCTYPE svg PUBLIC "-//W3C//DTD SVG 1.1//EN" "http://www.w3.org/Graphics/SVG/1.1/DTD/svg11.dtd">
<svg version="1.1" id="Storyboarding" xmlns="http://www.w3.org/2000/svg" xmlns:xlink="http://www.w3.org/1999/xlink" x="0px"
	 y="0px" viewBox="0 0 156 180" enable-background="new 0 0 156 180" xml:space="preserve">
<rect x="4" y="4" fill="#FFFFFF" width="148" height="172"/>
<rect x="74.55" y="17.121" fill="#25282D" width="64.052" height="3"/>
<rect x="74.55" y="29.651" fill="#25282D" width="64.052" height="2"/>
<rect x="74.55" y="38.867" fill="#25282D" width="64.052" height="2"/>
<rect x="74.55" y="48.083" fill="#25282D" width="64.052" height="2"/>
<rect x="74.55" y="57.299" fill="#25282D" width="64.052" height="2"/>
<g>
	<rect x="15.886" y="15.91" fill="#6BC7BA" width="43.157" height="43.157"/>
	<path fill="#25282D" d="M60.543,60.568H14.386V14.41h46.157V60.568z M17.386,57.568h40.157V17.41H17.386V57.568z"/>
</g>
<g>
	<polygon fill="none" points="27.174,16 17,26.174 17,31.951 32.952,16 	"/>
	<polygon fill="none" points="39.292,60 58,41.292 58,35.514 33.514,60 	"/>
	<polygon fill="none" points="46.483,60 58,48.483 58,42.706 40.706,60 	"/>
	<polygon fill="none" points="32.1,60 58,34.1 58,28.323 26.323,60 	"/>
	<polygon fill="none" points="19.983,16 17,18.983 17,24.76 25.76,16 	"/>
	<polygon fill="none" points="24.909,60 58,26.909 58,21.131 19.131,60 	"/>
	<polygon fill="none" points="34.366,16 17,33.365 17,39.143 40.143,16 	"/>
	<polygon fill="none" points="17,16 17,17.569 18.569,16 	"/>
	<polygon fill="none" points="53.674,60 58,55.674 58,49.897 47.897,60 	"/>
	<polygon fill="none" points="48.749,16 17,47.749 17,53.526 54.526,16 	"/>
	<polygon fill="none" points="17,54.94 17,60 17.717,60 58,19.717 58,16 55.94,16 	"/>
	<polygon fill="none" points="41.557,16 17,40.557 17,46.334 47.334,16 	"/>
	<polygon fill="none" points="58,60 58,57.089 55.089,60 	"/>
	<polygon fill="#25292E" points="54.526,16 17,53.526 17,54.94 55.94,16 	"/>
	<polygon fill="#25292E" points="25.76,16 17,24.76 17,26.174 27.174,16 	"/>
	<polygon fill="#25292E" points="40.143,16 17,39.143 17,40.557 41.557,16 	"/>
	<polygon fill="#25292E" points="32.952,16 17,31.951 17,33.365 34.366,16 	"/>
	<polygon fill="#25292E" points="18.569,16 17,17.569 17,18.983 19.983,16 	"/>
	<polygon fill="#25292E" points="47.334,16 17,46.334 17,47.749 48.749,16 	"/>
	<polygon fill="#25292E" points="26.323,60 58,28.323 58,26.909 24.909,60 	"/>
	<polygon fill="#25292E" points="19.131,60 58,21.131 58,19.717 17.717,60 	"/>
	<polygon fill="#25292E" points="33.514,60 58,35.514 58,34.1 32.1,60 	"/>
	<polygon fill="#25292E" points="40.706,60 58,42.706 58,41.292 39.292,60 	"/>
	<polygon fill="#25292E" points="47.897,60 58,49.897 58,48.483 46.483,60 	"/>
	<polygon fill="#25292E" points="55.089,60 58,57.089 58,55.674 53.674,60 	"/>
</g>
<rect x="74.55" y="70.855" fill="#25282D" width="64.052" height="3"/>
<rect x="74.55" y="83.385" fill="#25282D" width="64.052" height="2"/>
<rect x="74.55" y="92.601" fill="#25282D" width="64.052" height="2"/>
<rect x="74.55" y="101.817" fill="#25282D" width="64.052" height="2"/>
<rect x="74.55" y="111.033" fill="#25282D" width="64.052" height="2"/>
<g>
	<rect x="15.886" y="69.644" fill="#6BC7BA" width="43.157" height="43.157"/>
	<path fill="#25282D" d="M60.543,114.302H14.386V68.145h46.157V114.302z M17.386,111.302h40.157V71.145H17.386V111.302z"/>
</g>
<g>
	<polygon fill="none" points="53.137,114 59,108.746 59,103.304 47.066,114 	"/>
	<polygon fill="none" points="16,70 16,72.65 18.957,70 	"/>
	<polygon fill="none" points="28.026,70 16,80.779 16,86.22 34.098,70 	"/>
	<polygon fill="none" points="20.456,70 16,73.993 16,79.435 26.527,70 	"/>
	<polygon fill="none" points="45.567,114 59,101.961 59,96.519 39.495,114 	"/>
	<polygon fill="none" points="37.996,114 59,95.176 59,89.735 31.925,114 	"/>
	<polygon fill="none" points="22.856,114 59,81.606 59,76.165 16.784,114 	"/>
	<polygon fill="none" points="50.737,70 16,101.133 16,106.575 56.809,70 	"/>
	<polygon fill="none" points="59,114 59,110.089 54.636,114 	"/>
	<polygon fill="none" points="30.426,114 59,88.391 59,82.95 24.355,114 	"/>
	<polygon fill="none" points="35.597,70 16,87.563 16,93.005 41.668,70 	"/>
	<polygon fill="none" points="43.167,70 16,94.348 16,99.79 49.238,70 	"/>
	<polygon fill="none" points="57.807,70.449 16,107.918 16,113.36 59,74.821 59,70 57.404,70 	"/>
	<polygon fill="#25292E" points="57.404,70 56.809,70 16,106.575 16,107.918 57.807,70.449 	"/>
	<polygon fill="#25292E" points="26.527,70 16,79.435 16,80.779 28.026,70 	"/>
	<polygon fill="#25292E" points="41.668,70 16,93.005 16,94.348 43.167,70 	"/>
	<polygon fill="#25292E" points="34.098,70 16,86.22 16,87.563 35.597,70 	"/>
	<polygon fill="#25292E" points="18.957,70 16,72.65 16,73.993 20.456,70 	"/>
	<polygon fill="#25292E" points="49.238,70 16,99.79 16,101.133 50.737,70 	"/>
	<polygon fill="#25292E" points="24.355,114 59,82.95 59,81.606 22.856,114 	"/>
	<polygon fill="#25292E" points="16,114 16.784,114 59,76.165 59,74.821 16,113.36 	"/>
	<polygon fill="#25292E" points="31.925,114 59,89.735 59,88.391 30.426,114 	"/>
	<polygon fill="#25292E" points="39.495,114 59,96.519 59,95.176 37.996,114 	"/>
	<polygon fill="#25292E" points="47.066,114 59,103.304 59,101.961 45.567,114 	"/>
	<polygon fill="#25292E" points="54.636,114 59,110.089 59,108.746 53.137,114 	"/>
</g>
<rect x="74.55" y="124.589" fill="#25282D" width="64.052" height="3"/>
<rect x="74.55" y="137.119" fill="#25282D" width="64.052" height="2"/>
<rect x="74.55" y="146.335" fill="#25282D" width="64.052" height="2"/>
<rect x="74.55" y="155.551" fill="#25282D" width="64.052" height="2"/>
<rect x="74.55" y="164.768" fill="#25282D" width="64.052" height="2"/>
<g>
	<rect x="15.886" y="123.378" fill="#6BC7BA" width="43.157" height="43.157"/>
	<path fill="#25282D" d="M60.543,168.036H14.386v-46.158h46.157V168.036z M17.386,165.036h40.157v-40.158H17.386V165.036z"/>
</g>
<g>
	<polygon fill="none" points="19.956,123 16,126.465 16,131.766 26.009,123 	"/>
	<polygon fill="none" points="22.332,166 59,133.887 59,128.585 16.278,166 	"/>
	<polygon fill="none" points="16,123 16,125.136 18.439,123 	"/>
	<polygon fill="none" points="37.472,166 59,147.146 59,141.844 31.418,166 	"/>
	<polygon fill="none" points="59,166 59,161.734 54.129,166 	"/>
	<polygon fill="none" points="52.612,166 59,160.406 59,155.104 46.559,166 	"/>
	<polygon fill="none" points="45.042,166 59,153.775 59,148.474 38.989,166 	"/>
	<polygon fill="none" points="27.526,123 16,133.095 16,138.396 33.58,123 	"/>
	<polygon fill="none" points="29.901,166 59,140.515 59,135.215 23.849,166 	"/>
	<polygon fill="none" points="50.236,123 16,152.984 16,158.286 56.29,123 	"/>
	<polygon fill="none" points="42.667,123 16,146.355 16,151.656 48.719,123 	"/>
	<polygon fill="none" points="57.804,123.003 16,159.614 16,164.915 59,127.256 59,123 57.801,123 	"/>
	<polygon fill="none" points="35.097,123 16,139.725 16,145.026 41.15,123 	"/>
	<polygon fill="#25292E" points="57.801,123 56.29,123 16,158.286 16,159.614 57.804,123.003 	"/>
	<polygon fill="#25292E" points="26.009,123 16,131.766 16,133.095 27.526,123 	"/>
	<polygon fill="#25292E" points="41.15,123 16,145.026 16,146.355 42.667,123 	"/>
	<polygon fill="#25292E" points="33.58,123 16,138.396 16,139.725 35.097,123 	"/>
	<polygon fill="#25292E" points="18.439,123 16,125.136 16,126.465 19.956,123 	"/>
	<polygon fill="#25292E" points="48.719,123 16,151.656 16,152.984 50.236,123 	"/>
	<polygon fill="#25292E" points="23.849,166 59,135.215 59,133.887 22.332,166 	"/>
	<polygon fill="#25292E" points="16,166 16.278,166 59,128.585 59,127.256 16,164.915 	"/>
	<polygon fill="#25292E" points="31.418,166 59,141.844 59,140.515 29.901,166 	"/>
	<polygon fill="#25292E" points="38.989,166 59,148.474 59,147.146 37.472,166 	"/>
	<polygon fill="#25292E" points="46.559,166 59,155.104 59,153.775 45.042,166 	"/>
	<polygon fill="#25292E" points="54.129,166 59,161.734 59,160.406 52.612,166 	"/>
</g>
<path fill="#25292E" d="M156,180H0V0h156V180z M4,176h148V4H4V176z"/>
</svg>
