<?xml version="1.0" encoding="utf-8"?>
<!-- Generator: Adobe Illustrator 18.0.0, SVG Export Plug-In . SVG Version: 6.00 Build 0)  -->
<!DOCTYPE svg PUBLIC "-//W3C//DTD SVG 1.1//EN" "http://www.w3.org/Graphics/SVG/1.1/DTD/svg11.dtd">
<svg version="1.1" id="Storyboarding" xmlns="http://www.w3.org/2000/svg" xmlns:xlink="http://www.w3.org/1999/xlink" x="0px"
	 y="0px" viewBox="0 0 180.978 180" enable-background="new 0 0 180.978 180" xml:space="preserve">
<rect x="13" y="18" fill="#FFFFFF" width="131" height="153"/>
<path fill="#25292E" d="M147,175H9V14h139v159h-1V175z M13,171h131V18H13V171z"/>
<rect x="102.243" y="130.295" fill="#25282D" width="29.311" height="2"/>
<rect x="30.036" y="130.295" fill="#25282D" width="65.763" height="2"/>
<rect x="102.243" y="138.496" fill="#25282D" width="29.311" height="2"/>
<rect x="30.036" y="138.496" fill="#25282D" width="65.763" height="2"/>
<rect x="102.243" y="146.697" fill="#25282D" width="29.311" height="2"/>
<rect x="30.036" y="146.697" fill="#25282D" width="65.763" height="2"/>
<rect x="102.243" y="154.898" fill="#25282D" width="29.311" height="2"/>
<rect x="30.036" y="154.898" fill="#25282D" width="65.763" height="2"/>
<rect x="43.6" y="69.299" fill="#25282D" width="87.954" height="2"/>
<path fill="#25282D" d="M33.574,74.837c-2.502,0-4.538-2.036-4.538-4.538s2.036-4.539,4.538-4.539c2.503,0,4.539,2.036,4.539,4.539
	S36.077,74.837,33.574,74.837z M33.574,67.76c-1.399,0-2.538,1.139-2.538,2.539c0,1.399,1.139,2.538,2.538,2.538
	c1.4,0,2.539-1.139,2.539-2.538C36.113,68.899,34.975,67.76,33.574,67.76z"/>
<rect x="43.6" y="83.358" fill="#25282D" width="87.954" height="2"/>
<path fill="#25282D" d="M33.574,88.896c-2.502,0-4.538-2.036-4.538-4.539s2.036-4.539,4.538-4.539c2.503,0,4.539,2.036,4.539,4.539
	S36.077,88.896,33.574,88.896z M33.574,81.819c-1.399,0-2.538,1.139-2.538,2.539s1.139,2.539,2.538,2.539
	c1.4,0,2.539-1.139,2.539-2.539S34.975,81.819,33.574,81.819z"/>
<rect x="43.6" y="97.417" fill="#25282D" width="87.954" height="2"/>
<path fill="#25282D" d="M33.574,102.956c-2.502,0-4.538-2.036-4.538-4.539s2.036-4.539,4.538-4.539c2.503,0,4.539,2.036,4.539,4.539
	S36.077,102.956,33.574,102.956z M33.574,95.878c-1.399,0-2.538,1.139-2.538,2.539s1.139,2.539,2.538,2.539
	c1.4,0,2.539-1.139,2.539-2.539S34.975,95.878,33.574,95.878z"/>
<rect x="71.342" y="40.95" fill="#25282D" width="58.549" height="3"/>
<g>
	<circle fill="#6AC7B9" cx="43.85" cy="43.289" r="13.953"/>
	<path fill="#25282D" d="M43.851,58.742c-8.521,0-15.453-6.932-15.453-15.453s6.933-15.453,15.453-15.453
		s15.453,6.932,15.453,15.453S52.371,58.742,43.851,58.742z M43.851,30.835c-6.866,0-12.453,5.586-12.453,12.453
		s5.587,12.453,12.453,12.453s12.453-5.586,12.453-12.453S50.717,30.835,43.851,30.835z"/>
</g>
<rect x="43.6" y="111.476" fill="#25282D" width="87.954" height="2"/>
<path fill="#25282D" d="M33.574,117.015c-2.502,0-4.538-2.036-4.538-4.539s2.036-4.539,4.538-4.539c2.503,0,4.539,2.036,4.539,4.539
	S36.077,117.015,33.574,117.015z M33.574,109.938c-1.399,0-2.538,1.139-2.538,2.539s1.139,2.539,2.538,2.539
	c1.4,0,2.539-1.139,2.539-2.539S34.975,109.938,33.574,109.938z"/>
<g>
	
		<rect x="82.706" y="91.8" transform="matrix(-0.9657 0.2595 -0.2595 -0.9657 279.9669 158.7078)" fill="#FFFFFF" width="93.601" height="12.07"/>
	<path fill="#25282D" d="M84.816,117.646l-3.911-14.554l93.292-25.07l3.911,14.554L84.816,117.646z M84.581,105.211l2.354,8.759
		l87.497-23.513l-2.354-8.759L84.581,105.211z"/>
</g>
<g>
	<polygon fill="#6AC7B9" points="179.478,178.5 85.809,178.5 85.809,137.363 132.643,137.363 179.478,137.363 	"/>
	<path fill="#25282D" d="M180.978,180H84.31v-44.138h96.668V180z M87.31,177h90.668v-38.138H87.31V177z"/>
</g>
<rect x="89.301" y="105.346" transform="matrix(0.8664 0.4994 -0.4994 0.8664 66.1762 -34.6471)" fill="#25282D" width="17.07" height="1.999"/>
<rect x="105.137" y="101.09" transform="matrix(0.8664 0.4994 -0.4994 0.8664 66.167 -43.1234)" fill="#25282D" width="17.07" height="1.999"/>
<rect x="120.972" y="96.835" transform="matrix(0.8664 0.4994 -0.4994 0.8664 66.1577 -51.5993)" fill="#25282D" width="17.07" height="1.999"/>
<rect x="136.808" y="92.579" transform="matrix(0.8664 0.4994 -0.4994 0.8664 66.1522 -60.0777)" fill="#25282D" width="17.07" height="1.999"/>
<rect x="152.643" y="88.324" transform="matrix(0.8664 0.4994 -0.4994 0.8664 66.1385 -68.5516)" fill="#25282D" width="17.071" height="1.999"/>
<g>
	<rect x="85.876" y="118.542" fill="#FFFFFF" width="93.601" height="12.07"/>
	<path fill="#25282D" d="M180.978,132.111H84.376v-15.07h96.602V132.111z M87.376,129.111h90.602v-9.069H87.376V129.111z"/>
</g>
<rect x="98.882" y="116.042" transform="matrix(0.7071 0.7071 -0.7071 0.7071 117.3435 -34.1395)" fill="#25282D" width="2" height="17.07"/>
<rect x="115.279" y="116.042" transform="matrix(0.7071 0.7071 -0.7071 0.7071 122.1462 -45.7343)" fill="#25282D" width="2" height="17.07"/>
<rect x="131.677" y="116.042" transform="matrix(0.7071 0.7071 -0.7071 0.7071 126.949 -57.329)" fill="#25282D" width="2" height="17.07"/>
<rect x="148.074" y="116.042" transform="matrix(0.7071 0.7071 -0.7071 0.7071 131.7517 -68.9238)" fill="#25282D" width="2" height="17.07"/>
<rect x="164.472" y="116.042" transform="matrix(0.7071 0.7071 -0.7071 0.7071 136.5544 -80.5186)" fill="#25282D" width="2" height="17.07"/>
<g>
	<line fill="#FFFFFF" x1="85.809" y1="160.671" x2="179.478" y2="160.671"/>
	<rect x="85.81" y="159.171" fill="#25282D" width="93.668" height="3"/>
</g>
<g>
	<line fill="#7897CE" x1="132.643" y1="137.363" x2="132.643" y2="160.671"/>
	<rect x="131.644" y="137.362" fill="#25282D" width="2" height="23.309"/>
</g>
<g>
	<rect x="1.5" y="121.333" fill="#FFFFFF" width="57.167" height="57.167"/>
	<path fill="#25282D" d="M60.167,180H0v-60.167h60.167V180z M3,177h54.167v-54.167H3V177z"/>
</g>
<g>
	<path fill="#6CC7BB" d="M23.866,160.427c2.404-8.128-4.251-10.761-4.251-17.08c0-6.319,4.901-10.948,10.952-10.948
		s10.952,4.629,10.952,10.948c0,6.319-6.638,8.952-4.234,17.08"/>
	<path fill="#25292E" d="M36.325,160.711c-1.521-5.145,0.348-8.364,1.996-11.205c1.13-1.947,2.197-3.787,2.197-6.158
		c0-5.672-4.278-9.948-9.952-9.948c-5.673,0-9.951,4.276-9.951,9.948c0,2.371,1.07,4.211,2.204,6.159
		c1.653,2.84,3.527,6.06,2.006,11.204l-1.918-0.566c1.276-4.317-0.226-6.899-1.816-9.632c-1.217-2.092-2.476-4.254-2.476-7.165
		c0-6.7,5.25-11.948,11.951-11.948c6.702,0,11.952,5.248,11.952,11.948c0,2.909-1.255,5.071-2.468,7.162
		c-1.586,2.733-3.085,5.315-1.808,9.635L36.325,160.711z"/>
</g>
<g>
	<path fill="#FFFFFF" d="M34.961,168.67c0,0-1.971-0.172-4.347-0.172s-4.443,0.172-4.443,0.172l-0.96-3.778l-1.018-4.006
		c0,0,2.323-0.458,6.449-0.458s6.296,0.458,6.296,0.458l-1.033,4.066L34.961,168.67z"/>
	<path fill="#25292E" d="M35.721,169.74l-0.847-0.074c-0.02-0.002-1.959-0.168-4.26-0.168c-2.303,0-4.339,0.167-4.359,0.168
		l-0.844,0.07l-2.446-9.628l1.036-0.204c0.099-0.02,2.466-0.477,6.643-0.477c4.183,0,6.409,0.46,6.502,0.479l1.02,0.215
		L35.721,169.74z M25.437,161.713l1.499,5.901c0.832-0.051,2.189-0.116,3.679-0.116c1.47,0,2.775,0.063,3.584,0.114l1.501-5.906
		c-0.998-0.125-2.702-0.278-5.056-0.278C28.251,161.428,26.474,161.587,25.437,161.713z"/>
</g>
<path fill="#25292E" d="M36.181,163.901c-0.023-0.002-2.458-0.255-5.738-0.255c-3.274,0-5.443,0.252-5.465,0.254l-0.117-0.992
	c0.09-0.011,2.243-0.262,5.582-0.262c3.336,0,5.818,0.258,5.844,0.261L36.181,163.901z"/>
<path fill="#25292E" d="M25.673,166.646l-0.135-0.99c0.078-0.011,1.959-0.263,5.076-0.263c3.12,0,4.874,0.252,4.947,0.263
	l-0.145,0.99c-0.018-0.003-1.765-0.253-4.803-0.253C27.571,166.394,25.691,166.645,25.673,166.646z"/>
<rect x="21.924" y="153.998" transform="matrix(0.2475 0.9689 -0.9689 0.2475 170.8028 89.0769)" fill="#25292E" width="12.263" height="1"/>
<rect x="32.647" y="148.378" transform="matrix(0.9707 0.2402 -0.2402 0.9707 38.0868 -3.4387)" fill="#25292E" width="1" height="12.239"/>
<path fill="#25292E" d="M33.154,146.062c-0.01-0.004-0.991-0.417-2.54-0.417c-1.53,0-2.387,0.403-2.396,0.407l-0.44-0.897
	c0.042-0.021,1.052-0.51,2.836-0.51c1.772,0,2.892,0.479,2.938,0.5L33.154,146.062z"/>
<g>
	<polygon fill="none" points="104.687,137 85,156.687 85,161.673 109.673,137 	"/>
	<polygon fill="none" points="91.888,137 85,143.888 85,148.874 96.874,137 	"/>
	<polygon fill="none" points="111.087,137 85,163.087 85,168.072 116.073,137 	"/>
	<polygon fill="none" points="85.489,137 85,137.489 85,142.474 90.474,137 	"/>
	<polygon fill="none" points="130.285,137 88.285,179 93.271,179 135.271,137 	"/>
	<polygon fill="none" points="117.487,137 85,169.486 85,174.472 122.472,137 	"/>
	<polygon fill="none" points="123.886,137 85,175.886 85,179 86.871,179 128.871,137 	"/>
	<polygon fill="none" points="176.464,179 179,176.464 179,171.479 171.479,179 	"/>
	<polygon fill="none" points="144.466,179 179,144.466 179,139.481 139.481,179 	"/>
	<polygon fill="none" points="179,179 179,177.878 177.878,179 	"/>
	<polygon fill="none" points="170.064,179 179,170.064 179,165.079 165.079,179 	"/>
	<polygon fill="none" points="150.866,179 179,150.866 179,145.88 145.88,179 	"/>
	<polygon fill="none" points="163.665,179 179,163.665 179,158.679 158.679,179 	"/>
	<polygon fill="none" points="157.265,179 179,157.265 179,152.28 152.28,179 	"/>
	<polygon fill="none" points="98.288,137 85,150.288 85,155.273 103.273,137 	"/>
	<polygon fill="none" points="168.683,137 126.683,179 131.668,179 173.667,137 	"/>
	<polygon fill="none" points="155.884,137 113.884,179 118.868,179 160.868,137 	"/>
	<polygon fill="none" points="143.085,137 101.084,179 106.069,179 148.069,137 	"/>
	<polygon fill="none" points="149.483,137 107.483,179 112.47,179 154.47,137 	"/>
	<polygon fill="none" points="133.082,179 138.067,179 179,138.067 179,137 175.081,137 	"/>
	<polygon fill="none" points="162.282,137 120.282,179 125.269,179 167.269,137 	"/>
	<polygon fill="none" points="136.685,137 94.685,179 99.67,179 141.671,137 	"/>
	<polygon fill="#25292E" points="90.474,137 85,142.474 85,143.888 91.888,137 	"/>
	<polygon fill="#25292E" points="141.671,137 99.67,179 101.084,179 143.085,137 	"/>
	<polygon fill="#25292E" points="116.073,137 85,168.072 85,169.486 117.487,137 	"/>
	<polygon fill="#25292E" points="85,137 85,137.489 85.489,137 	"/>
	<polygon fill="#25292E" points="128.871,137 86.871,179 88.285,179 130.285,137 	"/>
	<polygon fill="#25292E" points="103.273,137 85,155.273 85,156.687 104.687,137 	"/>
	<polygon fill="#25292E" points="96.874,137 85,148.874 85,150.288 98.288,137 	"/>
	<polygon fill="#25292E" points="122.472,137 85,174.472 85,175.886 123.886,137 	"/>
	<polygon fill="#25292E" points="109.673,137 85,161.673 85,163.087 111.087,137 	"/>
	<polygon fill="#25292E" points="135.271,137 93.271,179 94.685,179 136.685,137 	"/>
	<polygon fill="#25292E" points="154.47,137 112.47,179 113.884,179 155.884,137 	"/>
	<polygon fill="#25292E" points="148.069,137 106.069,179 107.483,179 149.483,137 	"/>
	<polygon fill="#25292E" points="160.868,137 118.868,179 120.282,179 162.282,137 	"/>
	<polygon fill="#25292E" points="167.269,137 125.269,179 126.683,179 168.683,137 	"/>
	<polygon fill="#25292E" points="173.667,137 131.668,179 133.082,179 175.081,137 	"/>
	<polygon fill="#25292E" points="145.88,179 179,145.88 179,144.466 144.466,179 	"/>
	<polygon fill="#25292E" points="139.481,179 179,139.481 179,138.067 138.067,179 	"/>
	<polygon fill="#25292E" points="158.679,179 179,158.679 179,157.265 157.265,179 	"/>
	<polygon fill="#25292E" points="152.28,179 179,152.28 179,150.866 150.866,179 	"/>
	<polygon fill="#25292E" points="171.479,179 179,171.479 179,170.064 170.064,179 	"/>
	<polygon fill="#25292E" points="165.079,179 179,165.079 179,163.665 163.665,179 	"/>
	<polygon fill="#25292E" points="177.878,179 179,177.878 179,176.464 176.464,179 	"/>
</g>
</svg>
