<?xml version="1.0" encoding="utf-8"?>
<!-- Generator: Adobe Illustrator 18.0.0, SVG Export Plug-In . SVG Version: 6.00 Build 0)  -->
<!DOCTYPE svg PUBLIC "-//W3C//DTD SVG 1.1//EN" "http://www.w3.org/Graphics/SVG/1.1/DTD/svg11.dtd">
<svg version="1.1" id="Storyboarding" xmlns="http://www.w3.org/2000/svg" xmlns:xlink="http://www.w3.org/1999/xlink" x="0px"
	 y="0px" viewBox="0 0 156 180" enable-background="new 0 0 156 180" xml:space="preserve">
<rect x="28.5" y="86.07" fill="#FFFFFF" width="98" height="22"/>
<g>
	<rect x="17.326" y="44.385" fill="#6BC7BA" width="119.995" height="41.504"/>
	<path fill="#25282D" d="M139.321,87.889H15.326V42.385h123.995V87.889z M19.326,83.889h115.995V46.385H19.326V83.889z"/>
</g>
<rect x="123.55" y="27.903" fill="#25282D" width="4" height="16.481"/>
<rect x="27.098" y="27.903" fill="#25282D" width="4" height="16.481"/>
<polygon fill="#25282D" points="29.177,180.06 23.551,180.06 123.55,108.554 123.55,85.888 127.55,85.888 127.55,110.216 "/>
<rect x="29.098" y="107.385" fill="#25282D" width="96.452" height="4"/>
<polygon fill="#25282D" points="125.471,180.06 27.098,110.216 27.098,85.888 31.098,85.888 31.098,108.554 131.068,180 "/>
<g>
	<polygon fill="none" points="80.027,108.07 102.027,86.07 95.199,86.07 73.199,108.07 	"/>
	<polygon fill="none" points="112.996,108.07 126.5,94.566 126.5,87.737 106.168,108.07 	"/>
	<polygon fill="none" points="88.27,108.07 110.27,86.07 103.441,86.07 81.441,108.07 	"/>
	<polygon fill="none" points="71.785,108.07 93.785,86.07 86.957,86.07 64.957,108.07 	"/>
	<polygon fill="none" points="126.5,108.07 126.5,104.222 122.652,108.07 	"/>
	<polygon fill="none" points="96.511,108.07 118.511,86.07 111.684,86.07 89.684,108.07 	"/>
	<polygon fill="none" points="45.746,86.07 28.5,103.316 28.5,108.07 30.575,108.07 52.574,86.07 	"/>
	<polygon fill="none" points="121.238,108.07 126.5,102.808 126.5,95.98 114.41,108.07 	"/>
	<polygon fill="none" points="37.505,86.07 28.5,95.075 28.5,101.902 44.332,86.07 	"/>
	<polygon fill="none" points="47.059,108.07 69.059,86.07 62.231,86.07 40.231,108.07 	"/>
	<polygon fill="none" points="38.817,108.07 60.817,86.07 53.989,86.07 31.989,108.07 	"/>
	<polygon fill="none" points="29.263,86.07 28.5,86.832 28.5,93.661 36.091,86.07 	"/>
	<polygon fill="none" points="63.543,108.07 85.543,86.07 78.715,86.07 56.715,108.07 	"/>
	<polygon fill="none" points="104.754,108.07 126.5,86.323 126.5,86.07 119.925,86.07 97.925,108.07 	"/>
	<polygon fill="none" points="55.301,108.07 77.301,86.07 70.473,86.07 48.473,108.07 	"/>
	<polygon fill="#25292E" points="28.5,86.07 28.5,86.832 29.263,86.07 	"/>
	<polygon fill="#25292E" points="73.199,108.07 95.199,86.07 93.785,86.07 71.785,108.07 	"/>
	<polygon fill="#25292E" points="40.231,108.07 62.231,86.07 60.817,86.07 38.817,108.07 	"/>
	<polygon fill="#25292E" points="56.715,108.07 78.715,86.07 77.301,86.07 55.301,108.07 	"/>
	<polygon fill="#25292E" points="44.332,86.07 28.5,101.902 28.5,103.316 45.746,86.07 	"/>
	<polygon fill="#25292E" points="36.091,86.07 28.5,93.661 28.5,95.075 37.505,86.07 	"/>
	<polygon fill="#25292E" points="48.473,108.07 70.473,86.07 69.059,86.07 47.059,108.07 	"/>
	<polygon fill="#25292E" points="53.989,86.07 52.574,86.07 30.575,108.07 31.989,108.07 	"/>
	<polygon fill="#25292E" points="64.957,108.07 86.957,86.07 85.543,86.07 63.543,108.07 	"/>
	<polygon fill="#25292E" points="89.684,108.07 111.684,86.07 110.27,86.07 88.27,108.07 	"/>
	<polygon fill="#25292E" points="81.441,108.07 103.441,86.07 102.027,86.07 80.027,108.07 	"/>
	<polygon fill="#25292E" points="97.925,108.07 119.925,86.07 118.511,86.07 96.511,108.07 	"/>
	<polygon fill="#25292E" points="106.168,108.07 126.5,87.737 126.5,86.323 104.754,108.07 	"/>
	<polygon fill="#25292E" points="114.41,108.07 126.5,95.98 126.5,94.566 112.996,108.07 	"/>
	<polygon fill="#25292E" points="122.652,108.07 126.5,104.222 126.5,102.808 121.238,108.07 	"/>
</g>
<g>
	<polygon fill="#FFFFFF" points="77.324,55.198 80.547,61.73 87.756,62.777 82.54,67.861 83.771,75.041 77.324,71.651 
		70.876,75.041 72.107,67.861 66.891,62.777 74.1,61.73 	"/>
	<path fill="#25282D" d="M69.548,76.869l1.485-8.658l-6.29-6.132l8.692-1.263l3.888-7.877l3.888,7.877l8.693,1.263l-6.29,6.132
		l1.485,8.658l-7.776-4.088L69.548,76.869z M77.323,70.521l5.12,2.691l-0.978-5.7l4.142-4.037l-5.725-0.832l-2.56-5.186l-2.56,5.186
		l-5.724,0.832l4.142,4.037l-0.978,5.7L77.323,70.521z"/>
</g>
</svg>
